<svg viewBox="0 0 512 512" xmlns="http://www.w3.org/2000/svg" xmlns:xlink="http://www.w3.org/1999/xlink">
  <linearGradient id="linear-gradient" gradientUnits="userSpaceOnUse" x1="256" x2="256" y2="512"><stop offset="0" stop-color="#4193ff"/><stop offset="1" stop-color="#4193ff"/></linearGradient><g id="Layer_2" data-name="Layer 2"><g id="Layer_1_copy_5" data-name="Layer 1 copy 5"><g id="_12" data-name="12"><g id="background"><rect fill="url(#linear-gradient)" height="512" rx="120.68" width="512"/></g><g fill="#fff"><path d="m400.8 252.48a21.2 21.2 0 0 0 -21.2 21.2v50.55a52.51 52.51 0 0 1 -52.46 52.46h-142.28a52.51 52.51 0 0 1 -52.46-52.46v-50.55a21.2 21.2 0 1 0 -42.4 0v50.55a95 95 0 0 0 94.86 94.86h142.28a95 95 0 0 0 94.86-94.86v-50.55a21.2 21.2 0 0 0 -21.2-21.2z"/><path d="m241.13 307.4.77.74a21.16 21.16 0 0 0 12 5.34h.2.56q.75.06 1.5.06c.61 0 1.23 0 1.85-.08h.18l.46-.06.57-.07h.21c.27-.05.55-.09.82-.15a21.09 21.09 0 0 0 5.45-1.88c.46-.24.92-.49 1.37-.76.41-.25.81-.51 1.21-.79l.16-.11c.38-.28.76-.57 1.13-.87l.17-.14.87-.78.29-.28.21-.19 50.38-50.38a21.2 21.2 0 1 0 -30-30l-14.21 14.21v-127.12a21.2 21.2 0 0 0 -21.2-21.19 21.19 21.19 0 0 0 -21.19 21.21v127.11l-14.41-14.39a21.2 21.2 0 1 0 -30 30z"/></g></g></g></g></svg>
